HIERARCHY
ROOT Hips
{
 OFFSET 0.000000 0.000000 0.000000
 CHANNELS 6 Xposition Yposition Zposition Yrotation Xrotation Zrotation
 JOINT Chest
 {
  OFFSET 0.000000 9.585900 0.002600
  CHANNELS 3 Yrotation Xrotation Zrotation
  JOINT Chest2
  {
   OFFSET 0.000000 9.601200 -0.005300
   CHANNELS 3 Yrotation Xrotation Zrotation
   JOINT Chest3
   {
    OFFSET 0.000000 9.561800 0.000000
    CHANNELS 3 Yrotation Xrotation Zrotation
    JOINT Chest4
    {
     OFFSET 0.000000 9.552100 0.000000
     CHANNELS 3 Yrotation Xrotation Zrotation
     JOINT Neck
     {
      OFFSET 0.000000 14.453000 0.000000
      CHANNELS 3 Yrotation Xrotation Zrotation
      JOINT Head
      {
       OFFSET 0.000000 8.936500 -0.011300
       CHANNELS 3 Yrotation Xrotation Zrotation
       End Site
       {
        OFFSET 0.000000 17.073600 -0.006000
       }
      }
     }
     JOINT RightCollar
     {
      OFFSET -2.921100 9.558500 0.000000
      CHANNELS 3 Yrotation Xrotation Zrotation
      JOINT RightShoulder
      {
       OFFSET -13.519700 0.000000 0.000000
       CHANNELS 3 Yrotation Xrotation Zrotation
       JOINT RightElbow
       {
        OFFSET 0.000000 -29.696600 0.000000
        CHANNELS 3 Yrotation Xrotation Zrotation
        JOINT RightWrist
        {
         OFFSET 0.000000 -24.004700 0.000000
         CHANNELS 3 Yrotation Xrotation Zrotation
         End Site
         {
          OFFSET 0.000000 -17.728500 0.000000
         }
        }
       }
      }
     }
     JOINT LeftCollar
     {
      OFFSET 2.921100 9.558500 0.000000
      CHANNELS 3 Yrotation Xrotation Zrotation
      JOINT LeftShoulder
      {
       OFFSET 13.519700 0.000000 0.000000
       CHANNELS 3 Yrotation Xrotation Zrotation
       JOINT LeftElbow
       {
        OFFSET 0.000000 -29.696600 0.000000
        CHANNELS 3 Yrotation Xrotation Zrotation
        JOINT LeftWrist
        {
         OFFSET 0.000000 -24.004700 0.000000
         CHANNELS 3 Yrotation Xrotation Zrotation
         End Site
         {
          OFFSET 0.000000 -17.728500 0.000000
         }
        }
       }
      }
     }
    }
   }
  }
 }
 JOINT RightHip
 {
  OFFSET -7.771700 -0.012900 -0.001300
  CHANNELS 3 Yrotation Xrotation Zrotation
  JOINT RightKnee
  {
   OFFSET 0.000000 -40.869800 0.001200
   CHANNELS 3 Yrotation Xrotation Zrotation
   JOINT RightAnkle
   {
    OFFSET 0.000000 -39.717900 0.002100
    CHANNELS 3 Yrotation Xrotation Zrotation
    JOINT RightToe
    {
     OFFSET 0.000000 -4.965400 11.033500
     CHANNELS 3 Yrotation Xrotation Zrotation
     End Site
     {
      OFFSET 0.000000 -1.423100 5.872300
     }
    }
   }
  }
 }
 JOINT LeftHip
 {
  OFFSET 7.771700 -0.012900 -0.001300
  CHANNELS 3 Yrotation Xrotation Zrotation
  JOINT LeftKnee
  {
   OFFSET 0.000000 -40.869800 0.001200
   CHANNELS 3 Yrotation Xrotation Zrotation
   JOINT LeftAnkle
   {
    OFFSET 0.000000 -39.717900 0.002100
    CHANNELS 3 Yrotation Xrotation Zrotation
    JOINT LeftToe
    {
     OFFSET 0.000000 -4.965400 11.033500
     CHANNELS 3 Yrotation Xrotation Zrotation
     End Site
     {
      OFFSET 0.000000 -1.423100 5.872300
     }
    }
   }
  }
 }
}
MOTION
Frames: 9
Frame Time: 0.008333
0.000000 85.388000 0.000000 0.000000 -5.767877 0.000000 0.000000 11.653817 0.000000 0.000000 -5.885947 0.000000 0.000000 -0.000000 0.000000 0.000000 -0.000000 0.000000 0.000000 12.528835 0.000000 0.000000 0.711642 0.000000 0.000000 -0.000000 0.000000 0.000000 0.000000 -90.000000 0.000000 -2.309062 0.000000 0.000000 2.309062 0.000000 0.000000 -0.000000 0.000000 0.000000 -0.000000 90.000000 0.000000 -2.309062 0.000000 0.000000 2.309062 0.000000 0.000000 8.520406 0.000000 0.000000 1.905762 0.000000 -0.000000 -4.658285 0.000000 0.000000 -0.000000 0.000000 0.000000 8.520406 0.000000 0.000000 1.905762 0.000000 -0.000000 -4.658285 0.000000 0.000000 -0.000000 0.000000
-35.339425 44.015129 35.630208 -179.733905 -22.835856 0.484649 -1.939869 20.254642 1.576807 -0.278023 2.603812 0.307460 -0.468938 4.212686 0.514837 -1.660062 17.417040 1.884123 -6.002020 10.948835 -4.561017 -5.450757 -14.095962 -3.593622 11.327870 -2.266187 -13.546261 -26.775591 -26.778063 -24.157952 -127.181994 -48.248419 124.850765 -25.162633 -11.428205 -29.503297 -16.896566 -6.569316 3.782519 33.054348 -24.218996 15.226992 123.145382 -45.939908 -127.799139 31.347608 -11.508226 33.739808 -3.496720 -69.817520 7.157109 -156.552076 70.728090 -155.778694 -11.940574 -25.168629 8.393673 0.304088 -0.959152 0.121820 6.364040 -58.846827 -10.793819 176.455145 64.523286 175.616924 -2.112763 -33.322170 4.389804 0.008082 0.092961 0.023596
-35.336485 44.013209 35.645612 -179.702813 -22.722560 0.479098 -1.963115 20.163259 1.571895 -0.271559 2.615595 0.302857 -0.457677 4.199519 0.507155 -1.652798 17.375281 1.891427 -6.029718 10.927442 -4.547382 -5.523128 -14.147301 -3.546157 11.307964 -2.276516 -13.529797 -26.848169 -26.711305 -24.136814 -127.272921 -48.223802 125.087681 -25.140133 -11.370102 -29.508946 -16.896855 -6.578249 3.774207 33.093637 -24.186538 15.217579 123.332881 -45.946217 -128.078906 31.330283 -11.477757 33.754210 -3.510404 -69.926246 7.150827 -156.511605 70.739366 -155.734126 -11.943355 -25.191057 8.401096 0.296998 -0.940834 0.119643 6.369155 -58.980275 -10.817983 176.459220 64.532243 175.616307 -2.125316 -33.293284 4.395527 0.016852 0.108924 0.017309
-35.330978 44.011283 35.662825 -179.719363 -22.594457 0.480821 -1.934487 20.083558 1.578903 -0.269639 2.592978 0.301333 -0.459401 4.181610 0.510663 -1.632269 17.342475 1.884102 -6.059247 10.915557 -4.535831 -5.559402 -14.159741 -3.527165 11.279276 -2.283551 -13.515779 -26.851482 -26.671804 -24.135558 -127.354940 -48.243455 125.240512 -25.117305 -11.307810 -29.466930 -16.900965 -6.587870 3.769723 33.138201 -24.154935 15.210107 123.507809 -45.946956 -128.358445 31.308707 -11.451194 33.763680 -3.525585 -70.054822 7.188643 -156.457551 70.763916 -155.680207 -11.933100 -25.181177 8.398312 0.277202 -0.932781 0.114468 6.393712 -59.128908 -10.813296 176.494018 64.537400 175.641109 -2.127101 -33.260398 4.397676 0.014990 0.104111 0.018301
-35.325964 44.012962 35.672731 -179.706236 -22.511271 0.476844 -1.932655 20.046893 1.575049 -0.276542 2.554505 0.308753 -0.426807 4.191612 0.489561 -1.631036 17.292806 1.900706 -6.091487 10.906865 -4.528210 -5.586144 -14.155766 -3.512209 11.246549 -2.288047 -13.498839 -26.846802 -26.629895 -24.140673 -127.443479 -48.267214 125.396792 -25.096705 -11.246771 -29.393743 -16.912077 -6.584268 3.769025 33.171549 -24.128751 15.206609 123.687230 -45.945302 -128.632466 31.284489 -11.435421 33.758295 -3.538700 -70.132568 7.197058 -156.418050 70.775616 -155.636566 -11.927975 -25.184449 8.393938 0.272170 -0.924929 0.115542 6.383992 -59.231298 -10.799347 176.517572 64.540434 175.649515 -2.140867 -33.216837 4.403315 0.012323 0.085449 0.020719
-35.320455 44.016725 35.678355 -179.701917 -22.452630 0.474766 -1.919832 20.029993 1.576053 -0.273446 2.540421 0.307767 -0.428637 4.167186 0.491167 -1.617564 17.253903 1.898766 -6.123655 10.899010 -4.525927 -5.586302 -14.123978 -3.502980 11.219151 -2.289092 -13.485363 -26.900316 -26.550554 -24.172856 -127.513297 -48.215876 125.573472 -25.078902 -11.190815 -29.288724 -16.930640 -6.556729 3.772382 33.182285 -24.119470 15.205981 123.886401 -45.946483 -128.893184 31.267442 -11.432505 33.726125 -3.541548 -70.182473 7.201897 -156.376885 70.786910 -155.590241 -11.918286 -25.186285 8.387572 0.271223 -0.921005 0.117651 6.380964 -59.297210 -10.782443 176.529824 64.545297 175.653936 -2.161526 -33.194735 4.413133 0.015954 0.084339 0.018827
-35.311877 44.015387 35.696633 -179.716417 -22.308049 0.462217 -1.879197 19.974972 1.595303 -0.273836 2.478155 0.312445 -0.436975 4.141306 0.496501 -1.606171 17.217532 1.890835 -6.155567 10.888864 -4.528115 -5.612293 -14.130477 -3.495837 11.207260 -2.291761 -13.471472 -26.923442 -26.497904 -24.198741 -127.583431 -48.209459 125.732653 -25.063531 -11.140176 -29.156435 -16.923923 -6.561269 3.766113 33.230131 -24.074936 15.211094 124.043715 -45.924107 -129.176059 31.259393 -11.438790 33.657953 -3.593945 -70.324172 7.275936 -156.323693 70.815566 -155.529983 -11.895491 -25.174401 8.369005 0.238552 -0.912994 0.114269 6.370983 -59.469552 -10.726701 176.605994 64.547103 175.705374 -2.176589 -33.154457 4.429829 0.020459 0.079068 0.020106
-35.307874 44.016558 35.709042 -179.692175 -22.197040 0.461523 -1.897815 19.912284 1.585875 -0.270977 2.460914 0.311757 -0.433250 4.117508 0.494476 -1.604925 17.175452 1.891453 -6.173627 10.900535 -4.526738 -5.713215 -14.210917 -3.497833 11.196452 -2.295440 -13.461477 -26.919641 -26.458010 -24.212933 -127.664653 -48.235008 125.890208 -25.050260 -11.090294 -29.007214 -16.914828 -6.564927 3.757965 33.312817 -24.006841 15.218854 124.185747 -45.870281 -129.470036 31.253509 -11.449412 33.555143 -3.603074 -70.432560 7.263877 -156.311408 70.825758 -155.514555 -11.871561 -25.178730 8.359982 0.240573 -0.911242 0.111804 6.382330 -59.596769 -10.751009 176.603108 64.555306 175.699188 -2.189858 -33.121491 4.431088 0.019330 0.081059 0.019438
-35.302868 44.017821 35.721163 -179.694968 -22.081516 0.463906 -1.890170 19.833600 1.585810 -0.268744 2.458314 0.307213 -0.431265 4.093233 0.493044 -1.603986 17.130652 1.895179 -6.191681 10.911715 -4.528904 -5.812997 -14.270849 -3.499094 11.183287 -2.302529 -13.454864 -26.937637 -26.401623 -24.253816 -127.725393 -48.224980 126.045337 -25.034166 -11.040897 -28.857853 -16.878756 -6.599901 3.736294 33.312298 -23.930707 15.268520 124.334456 -45.829204 -129.724572 31.243499 -11.457800 33.426496 -3.614955 -70.547470 7.281402 -156.262797 70.837586 -155.465666 -11.844034 -25.168600 8.350813 0.234734 -0.910454 0.108584 6.406007 -59.725807 -10.763528 176.617882 64.561597 175.712336 -2.194023 -33.093677 4.427815 0.019391 0.081588 0.019908
